{
    "asset" : {
        "generator" : "Khronos glTF Blender I/O v1.0.5",
        "version" : "2.0"
    },
    "scene" : 0,
    "scenes" : [
        {
            "name" : "Scene",
            "nodes" : [
                0
            ]
        }
    ],
    "nodes" : [
        {
            "mesh" : 0,
            "name" : "Cube"
        }
    ],
    "materials" : [
        {
            "doubleSided" : true,
            "name" : "Material",
            "pbrMetallicRoughness" : {
                "baseColorFactor" : [
                    0.7874122262001038,
                    0.5801186561584473,
                    0.4132081866264343,
                    1
                ],
                "metallicFactor" : 0,
                "roughnessFactor" : 0.6499999761581421
            }
        }
    ],
    "meshes" : [
        {
            "name" : "Cube",
            "primitives" : [
                {
                    "attributes" : {
                        "POSITION" : 0,
                        "NORMAL" : 1
                    },
                    "indices" : 2,
                    "material" : 0
                }
            ]
        }
    ],
    "accessors" : [
        {
            "bufferView" : 0,
            "componentType" : 5126,
            "count" : 1674,
            "max" : [
                1.946502447128296,
                1.191611886024475,
                0.4583333730697632
            ],
            "min" : [
                -4.656205654144287,
                -0.8502530455589294,
                -0.4583333730697632
            ],
            "type" : "VEC3"
        },
        {
            "bufferView" : 1,
            "componentType" : 5126,
            "count" : 1674,
            "type" : "VEC3"
        },
        {
            "bufferView" : 2,
            "componentType" : 5123,
            "count" : 10032,
            "type" : "SCALAR"
        }
    ],
    "bufferViews" : [
        {
            "buffer" : 0,
            "byteLength" : 20088,
            "byteOffset" : 0
        },
        {
            "buffer" : 0,
            "byteLength" : 20088,
            "byteOffset" : 20088
        },
        {
            "buffer" : 0,
            "byteLength" : 20064,
            "byteOffset" : 40176
        }
    ],
    "buffers" : [
        {
            "byteLength" : 60240,
            "uri" : "data:application/octet-stream;base64,"
        }
    ]
}
